# Blender3D v249 OBJ File: asv_very_low.blend
# www.blender3d.org
mtllib asv_very_low.mtl
v -1.886078 -0.941934 -0.620261
v -1.812854 -1.118711 -0.620261
v -1.886078 -1.295487 -0.620261
v -2.062854 -1.368711 -0.620261
v -2.239631 -1.295487 -0.620261
v -2.312854 -1.118711 -0.620261
v -2.239631 -0.941934 -0.620261
v -2.062854 -0.868711 -0.620261
v -1.886078 -0.941934 0.865547
v -1.812854 -1.118711 0.865547
v -1.886078 -1.295487 0.865547
v -2.062854 -1.368711 0.865547
v -2.239631 -1.295487 0.865547
v -2.312854 -1.118711 0.865547
v -2.239631 -0.941934 0.865547
v -2.062854 -0.868711 0.865547
v -2.062854 -1.118711 -0.620261
v -2.062854 -1.118711 0.865547
vn 0.000000 0.000000 -1.000000
vn 0.000000 0.000000 1.000000
vn 0.382684 0.923879 -0.000000
vn 0.382683 0.923879 -0.000000
vn -0.382684 0.923879 -0.000000
vn -0.382683 0.923880 0.000000
vn -0.923879 0.382684 -0.000000
vn -0.923879 0.382685 0.000000
vn -0.923879 -0.382684 0.000000
vn -0.923880 -0.382684 0.000000
vn -0.382684 -0.923879 0.000000
vn 0.382684 -0.923880 -0.000000
vn 0.382684 -0.923879 0.000000
vn 0.923880 -0.382683 0.000000
vn 0.923879 -0.382684 -0.000000
vn 0.923879 0.382684 -0.000000
vn 0.923880 0.382684 -0.000000
usemtl Material.020
s off
f 17//1 1//1 2//1
f 18//2 10//2 9//2
f 17//1 2//1 3//1
f 18//2 11//2 10//2
f 17//1 3//1 4//1
f 18//2 12//2 11//2
f 17//1 4//1 5//1
f 18//2 13//2 12//2
f 17//1 5//1 6//1
f 18//2 14//2 13//2
f 17//1 6//1 7//1
f 18//2 15//2 14//2
f 17//1 7//1 8//1
f 18//2 16//2 15//2
f 8//1 1//1 17//1
f 18//2 9//2 16//2
f 9//3 1//3 16//3
f 1//4 8//4 16//4
f 7//5 15//5 8//5
f 15//6 16//6 8//6
f 6//7 14//7 7//7
f 14//8 15//8 7//8
f 5//9 13//9 6//9
f 13//10 14//10 6//10
f 4//11 12//11 13//11
f 4//11 13//11 5//11
f 3//12 11//12 12//12
f 3//13 12//13 4//13
f 2//14 10//14 11//14
f 2//15 11//15 3//15
f 1//16 9//16 10//16
f 1//17 10//17 2//17
v 2.720181 -0.942223 -0.620261
v 2.793404 -1.119000 -0.620261
v 2.720181 -1.295777 -0.620261
v 2.543404 -1.369000 -0.620261
v 2.366627 -1.295777 -0.620261
v 2.293404 -1.119000 -0.620261
v 2.366627 -0.942223 -0.620261
v 2.543404 -0.869000 -0.620261
v 2.720181 -0.942223 0.865547
v 2.793404 -1.119000 0.865547
v 2.720181 -1.295777 0.865547
v 2.543404 -1.369000 0.865547
v 2.366627 -1.295777 0.865547
v 2.293404 -1.119000 0.865547
v 2.366627 -0.942223 0.865547
v 2.543404 -0.869000 0.865547
v 2.543404 -1.119000 -0.620261
v 2.543404 -1.119000 0.865547
vn -0.382682 0.923880 0.000000
vn -0.923880 0.382684 -0.000000
vn 0.923880 -0.382684 0.000000
usemtl Material.020
s off
f 35//1 19//1 20//1
f 36//2 28//2 27//2
f 35//1 20//1 21//1
f 36//2 29//2 28//2
f 35//1 21//1 22//1
f 36//2 30//2 29//2
f 35//1 22//1 23//1
f 36//2 31//2 30//2
f 35//1 23//1 24//1
f 36//2 32//2 31//2
f 35//1 24//1 25//1
f 36//2 33//2 32//2
f 35//1 25//1 26//1
f 36//2 34//2 33//2
f 26//1 19//1 35//1
f 36//2 27//2 34//2
f 27//3 19//3 34//3
f 19//4 26//4 34//4
f 25//5 33//5 26//5
f 33//18 34//18 26//18
f 24//7 32//7 25//7
f 32//19 33//19 25//19
f 23//9 31//9 24//9
f 31//10 32//10 24//10
f 22//11 30//11 31//11
f 22//11 31//11 23//11
f 21//13 29//13 30//13
f 21//13 30//13 22//13
f 20//20 28//20 29//20
f 20//15 29//15 21//15
f 19//16 27//16 28//16
f 19//17 28//17 20//17
v 2.168043 -0.725459 -1.109017
v 2.168043 -0.725459 1.678983
v -1.669957 -0.725459 1.678983
v -1.669956 -0.725459 -1.109017
v 2.168044 0.939941 -1.109016
v 2.168042 0.939941 1.678984
v -1.669958 0.939941 1.678983
v -1.669957 0.939941 -1.109017
vn -1.000000 -0.000000 -0.000000
vn 1.000000 -0.000001 0.000000
vn 1.000000 0.000001 0.000001
vn 0.000000 1.000000 -0.000000
vn -0.000000 -1.000000 0.000000
usemtl Material.010
s off
f 41//1 37//1 40//1
f 41//1 40//1 44//1
f 39//21 43//21 44//21
f 39//21 44//21 40//21
f 38//2 42//2 39//2
f 42//2 43//2 39//2
f 37//22 41//22 38//22
f 41//23 42//23 38//23
f 41//24 44//24 42//24
f 44//24 43//24 42//24
f 37//25 38//25 39//25
f 37//25 39//25 40//25
