# Blender3D v249 OBJ File: pipe_1meter_ecke90.blend
# www.blender3d.org
mtllib pipe_1meter_ecke90.mtl
v 1.060660 1.060660 -5.000000
v 1.385819 0.574025 -5.000000
v 1.385819 -0.574025 -5.000000
v 1.060660 -1.060660 -5.000000
v 0.574025 -1.385819 -5.000000
v 0.000000 -1.500000 -5.000000
v -0.574025 -1.385819 -5.000000
v -1.060660 -1.060660 -5.000000
v -1.385819 -0.574025 -5.000000
v -1.500000 0.000000 -5.000000
v -1.385819 0.574025 -5.000000
v -1.060660 1.060660 -5.000000
v -0.574024 1.385820 -5.000000
v 0.000001 1.500000 -5.000000
v 0.574026 1.385819 -5.000000
v 1.060661 1.060659 5.000000
v 1.385820 0.574024 5.000000
v 1.500000 -0.000002 5.000000
v 1.385818 -0.574027 5.000000
v 1.060658 -1.060662 5.000000
v 0.574023 -1.385820 5.000000
v -0.000003 -1.500000 5.000000
v -0.574028 -1.385818 5.000000
v -1.060663 -1.060658 5.000000
v -1.385821 -0.574022 5.000000
v -1.500000 0.000004 5.000000
v -1.385818 0.574029 5.000000
v -1.060657 1.060663 5.000000
v -0.574021 1.385821 5.000000
v 0.000005 1.500000 5.000000
v 0.574030 1.385817 5.000000
v 0.000000 0.000000 5.000000
v 1.189340 1.060660 -5.310660
v 0.845238 1.385819 -5.654762
v 0.439340 1.500000 -6.060659
v 0.033443 1.385819 -6.466557
v -0.310660 1.060660 -6.810660
v -0.540582 0.574025 -7.040583
v -0.621320 -0.000000 -7.121321
v -0.540582 -0.574025 -7.040583
v -0.310660 -1.060661 -6.810660
v 0.033443 -1.385820 -6.466557
v 0.439340 -1.500000 -6.060660
v 0.845237 -1.385819 -5.654763
v 1.189340 -1.060660 -5.310660
v 1.419262 -0.574025 -5.080738
v 1.419262 0.574025 -5.080738
v 1.500000 0.574025 -5.114181
v 1.500000 1.060660 -5.439340
v 1.500000 -0.000000 -5.000000
v 1.500000 -0.574025 -5.114181
v 1.500000 -1.060660 -5.439340
v 1.500000 -1.385819 -5.925975
v 1.500000 -1.500000 -6.500000
v 1.500000 -1.385820 -7.074025
v 1.500000 -1.060661 -7.560660
v 1.500000 -0.574025 -7.885819
v 1.500000 -0.000000 -8.000000
v 1.500000 0.574025 -7.885819
v 1.500000 1.060660 -7.560660
v 1.500000 1.385819 -7.074025
v 1.500000 1.500000 -6.499999
v 1.500000 1.385819 -5.925974
v 11.500000 1.385819 -5.925973
v 11.500000 1.060661 -5.439339
v 11.500000 1.500000 -6.499998
v 11.500000 1.385820 -7.074024
v 11.500000 1.060661 -7.560659
v 11.500000 0.574026 -7.885818
v 11.500000 0.000000 -7.999999
v 11.500000 -0.574025 -7.885818
v 11.500000 -1.060660 -7.560659
v 11.500000 -1.385819 -7.074024
v 11.500000 -1.500000 -6.499999
v 11.500000 -1.385819 -5.925974
v 11.500000 -1.060660 -5.439339
v 11.500000 -0.574025 -5.114180
v 11.500000 0.000000 -4.999999
v 11.500000 0.574026 -5.114180
v 11.500000 0.000000 -6.499999
vn 0.000000 0.000000 1.000000
vn 0.908663 -0.180744 0.376381
vn 0.908664 0.180744 0.376380
vn 0.376378 0.180744 0.908665
vn 0.376378 -0.180744 0.908665
vn 1.000000 0.000000 0.000000
vn -0.000000 0.555571 0.831469
vn -0.000000 0.195090 0.980785
vn -0.000000 -0.195090 0.980785
vn -0.000000 -0.555571 0.831469
vn -0.000000 -0.831469 0.555571
vn 0.000000 -0.980785 0.195090
vn 0.000000 -0.980785 -0.195090
vn 0.000000 -0.831470 -0.555570
vn 0.000000 -0.555570 -0.831470
vn 0.000000 -0.195090 -0.980785
vn 0.000000 0.195090 -0.980785
vn 0.000000 0.555570 -0.831470
vn 0.000000 0.831470 -0.555570
vn -0.000000 0.980785 -0.195090
vn -0.000000 0.980785 0.195091
vn -0.000000 0.831469 0.555571
vn 0.224263 0.810291 0.541420
vn 0.080547 0.977598 0.194457
vn -0.080546 0.977599 -0.194456
vn -0.224263 0.810291 -0.541419
vn -0.325634 0.525289 -0.786151
vn -0.376381 0.180744 -0.908663
vn -0.376381 0.180744 -0.908664
vn -0.376381 -0.180745 -0.908663
vn -0.376381 -0.180744 -0.908663
vn -0.325634 -0.525289 -0.786151
vn -0.224263 -0.810291 -0.541419
vn -0.080546 -0.977599 -0.194456
vn 0.080547 -0.977599 0.194457
vn 0.080546 -0.977599 0.194457
vn 0.224263 -0.810291 0.541419
vn 0.325634 -0.525289 0.786151
vn 0.325632 -0.525290 0.786151
vn 0.325632 0.525289 0.786152
vn 0.325634 0.525290 0.786151
vn 0.786151 0.525289 0.325634
vn 0.786151 -0.525289 0.325634
vn 0.786151 -0.525289 0.325635
vn 0.541419 -0.810291 0.224263
vn 0.194456 -0.977599 0.080547
vn 0.194457 -0.977599 0.080547
vn -0.194456 -0.977599 -0.080546
vn -0.541419 -0.810291 -0.224263
vn -0.786151 -0.525289 -0.325634
vn -0.908663 -0.180744 -0.376381
vn -0.908663 -0.180745 -0.376381
vn -0.908663 0.180744 -0.376381
vn -0.786151 0.525290 -0.325634
vn -0.541419 0.810291 -0.224263
vn -0.194456 0.977599 -0.080546
vn 0.194457 0.977598 0.080547
vn 0.541419 0.810291 0.224263
vn 0.541420 0.810291 0.224263
vn 0.555572 0.831468 0.000000
vn 0.555571 0.831469 -0.000000
vn 0.195093 0.980785 -0.000000
vn 0.195091 0.980785 0.000000
vn -0.195087 0.980786 -0.000000
vn -0.195090 0.980785 0.000000
vn -0.555568 0.831471 -0.000000
vn -0.555570 0.831470 0.000000
vn -0.831468 0.555573 -0.000000
vn -0.831469 0.555571 0.000000
vn -0.980785 0.195093 -0.000000
vn -0.980785 0.195090 0.000000
vn -0.980786 -0.195088 -0.000000
vn -0.980785 -0.195090 0.000000
vn -0.831471 -0.555568 -0.000000
vn -0.831470 -0.555570 0.000000
vn -0.555572 -0.831468 -0.000000
vn -0.555570 -0.831470 0.000000
vn -0.195092 -0.980785 -0.000000
vn -0.195090 -0.980785 0.000000
vn 0.195089 -0.980786 -0.000000
vn 0.195090 -0.980785 0.000000
vn 0.555569 -0.831471 -0.000000
vn 0.555570 -0.831469 0.000000
vn 0.831469 -0.555572 -0.000000
vn 0.831470 -0.555570 0.000000
vn 0.980785 -0.195092 -0.000000
vn 0.980785 -0.195090 0.000000
vn 0.980786 0.195089 -0.000000
vn 0.980785 0.195090 0.000000
vn 0.831470 0.555569 -0.000000
vn 0.831470 0.555570 0.000000
usemtl Material.001
s off
f 32//1 17//1 16//1
f 32//1 18//1 17//1
f 32//1 19//1 18//1
f 32//1 20//1 19//1
f 32//1 21//1 20//1
f 32//1 22//1 21//1
f 32//1 23//1 22//1
f 32//1 24//1 23//1
f 32//1 25//1 24//1
f 32//1 26//1 25//1
f 32//1 27//1 26//1
f 32//1 28//1 27//1
f 32//1 29//1 28//1
f 32//1 30//1 29//1
f 32//1 31//1 30//1
f 32//1 16//1 31//1
f 50//2 3//2 46//2
f 2//3 50//3 47//3
f 47//4 50//4 48//4
f 50//5 46//5 51//5
f 64//6 65//6 80//6
f 80//6 66//6 64//6
f 80//6 67//6 66//6
f 80//6 68//6 67//6
f 80//6 69//6 68//6
f 80//6 70//6 69//6
f 80//6 71//6 70//6
f 80//6 72//6 71//6
f 80//6 73//6 72//6
f 80//6 74//6 73//6
f 80//6 75//6 74//6
f 80//6 76//6 75//6
f 80//6 77//6 76//6
f 80//6 78//6 77//6
f 80//6 79//6 78//6
f 80//6 65//6 79//6
f 49//7 48//7 79//7
f 49//7 79//7 65//7
f 48//8 50//8 78//8
f 48//8 78//8 79//8
f 50//9 51//9 77//9
f 50//9 77//9 78//9
f 51//10 52//10 76//10
f 51//10 76//10 77//10
f 52//11 53//11 75//11
f 52//11 75//11 76//11
f 53//12 54//12 74//12
f 53//12 74//12 75//12
f 54//13 55//13 73//13
f 54//13 73//13 74//13
f 55//14 56//14 72//14
f 55//14 72//14 73//14
f 56//15 57//15 71//15
f 56//15 71//15 72//15
f 57//16 58//16 70//16
f 57//16 70//16 71//16
f 58//17 59//17 69//17
f 58//17 69//17 70//17
f 59//18 60//18 68//18
f 59//18 68//18 69//18
f 60//19 61//19 67//19
f 60//19 67//19 68//19
f 61//20 62//20 66//20
f 61//20 66//20 67//20
f 62//21 63//21 64//21
f 62//21 64//21 66//21
f 63//22 49//22 65//22
f 63//22 65//22 64//22
f 34//23 33//23 49//23
f 34//23 49//23 63//23
f 35//24 34//24 63//24
f 35//24 63//24 62//24
f 36//25 35//25 62//25
f 36//25 62//25 61//25
f 37//26 36//26 61//26
f 37//26 61//26 60//26
f 38//27 37//27 59//27
f 37//27 60//27 59//27
f 39//28 38//28 59//28
f 39//29 59//29 58//29
f 40//30 39//30 58//30
f 40//31 58//31 57//31
f 41//32 40//32 57//32
f 41//32 57//32 56//32
f 42//33 41//33 55//33
f 41//33 56//33 55//33
f 43//34 42//34 54//34
f 42//34 55//34 54//34
f 44//35 43//35 54//35
f 44//36 54//36 53//36
f 45//37 44//37 53//37
f 45//37 53//37 52//37
f 46//38 45//38 52//38
f 46//39 52//39 51//39
f 33//40 47//40 48//40
f 33//41 48//41 49//41
f 1//42 2//42 47//42
f 1//42 47//42 33//42
f 3//43 4//43 45//43
f 3//44 45//44 46//44
f 4//45 5//45 44//45
f 4//45 44//45 45//45
f 5//46 6//46 43//46
f 5//47 43//47 44//47
f 6//48 7//48 42//48
f 6//48 42//48 43//48
f 7//49 8//49 42//49
f 8//49 41//49 42//49
f 8//50 9//50 40//50
f 8//50 40//50 41//50
f 9//51 10//51 39//51
f 9//52 39//52 40//52
f 10//53 11//53 38//53
f 10//53 38//53 39//53
f 11//54 12//54 37//54
f 11//54 37//54 38//54
f 12//55 13//55 36//55
f 12//55 36//55 37//55
f 13//56 14//56 35//56
f 13//56 35//56 36//56
f 14//57 15//57 34//57
f 14//57 34//57 35//57
f 15//58 1//58 34//58
f 1//59 33//59 34//59
f 16//60 1//60 31//60
f 1//61 15//61 31//61
f 14//62 30//62 31//62
f 14//63 31//63 15//63
f 13//64 29//64 30//64
f 13//65 30//65 14//65
f 12//66 28//66 29//66
f 12//67 29//67 13//67
f 11//68 27//68 28//68
f 11//69 28//69 12//69
f 10//70 26//70 27//70
f 10//71 27//71 11//71
f 9//72 25//72 26//72
f 9//73 26//73 10//73
f 8//74 24//74 25//74
f 8//75 25//75 9//75
f 7//76 23//76 24//76
f 7//77 24//77 8//77
f 6//78 22//78 23//78
f 6//79 23//79 7//79
f 5//80 21//80 22//80
f 5//81 22//81 6//81
f 4//82 20//82 21//82
f 4//83 21//83 5//83
f 3//84 19//84 20//84
f 3//85 20//85 4//85
f 50//86 18//86 19//86
f 50//87 19//87 3//87
f 2//88 17//88 18//88
f 2//89 18//89 50//89
f 1//90 16//90 17//90
f 1//91 17//91 2//91
