# Blender3D v249 OBJ File: smarte_low.blend
# www.blender3d.org
mtllib smarte_low.mtl
v 1.164366 0.099293 -2.864382
v 1.047606 0.099293 -2.574666
v 1.076139 0.099293 -2.574940
v 1.105269 0.099293 2.592969
v 1.219310 0.099293 2.860984
v 1.125732 0.099293 2.592772
v 2.590055 -0.100707 -1.089805
v 2.857381 -0.100707 -1.203553
v 2.604253 -0.100707 -1.075877
v 2.624511 0.099293 1.064948
v 2.880139 0.099293 1.167970
v 1.125731 -0.100707 2.592772
v 1.219310 -0.100707 2.860985
v 1.105269 -0.100707 2.592969
v -1.014805 -0.100707 2.613314
v -1.152214 -0.100707 2.883742
v -1.035174 -0.100707 2.593332
v -2.542918 -0.100707 1.114251
v -2.845227 -0.100707 1.222914
v -2.543108 -0.100707 1.094362
v -1.035175 0.099293 2.593331
v -1.152215 0.099293 2.883742
v -1.014805 0.099293 2.613313
v -2.563455 -0.100707 -1.025879
v -2.867985 -0.100707 -1.148610
v -2.543109 0.099293 1.094360
v -2.845228 0.099293 1.222912
v -2.542918 0.099293 1.114250
v 2.880139 -0.100707 1.167971
v 2.624511 -0.100707 1.064949
v -1.207153 0.099293 -2.841625
v -1.078723 0.099293 -2.539792
v -1.064393 0.099293 -2.554399
v 1.076140 -0.100707 -2.574939
v 1.047608 -0.100707 -2.574666
v 1.164367 -0.100707 -2.864382
v -1.207158 -0.100707 -2.841623
v -1.064396 -0.100707 -2.554398
v -1.078727 -0.100707 -2.539789
v 2.590053 0.099293 -1.089807
v 2.604252 0.099293 -1.075878
v 2.857380 0.099293 -1.203555
v -2.563454 0.099293 -1.025882
v -2.867984 0.099293 -1.148613
vn -0.000000 1.000000 -0.000000
vn -0.000000 -1.000000 0.000000
vn 0.700289 -0.000000 -0.713860
vn 0.999954 0.000001 -0.009596
vn 0.713860 0.000001 0.700289
vn 0.009596 0.000001 0.999954
vn -0.700289 0.000001 0.713859
vn -0.999954 0.000001 0.009596
vn -0.713859 0.000001 -0.700289
vn -0.009596 -0.000006 -0.999954
vn -0.009595 -0.000001 -0.999954
vn 0.700290 0.000000 -0.713859
vn 0.999954 0.000002 -0.009590
vn -0.713860 -0.000003 -0.700289
vn 0.713857 -0.000005 0.700292
vn -0.700289 0.000001 0.713860
vn -0.713860 0.000000 -0.700289
vn -0.009596 -0.000001 -0.999954
vn 0.700289 -0.000001 -0.713859
vn 0.999954 -0.000001 -0.009596
vn 0.009596 0.000002 0.999954
vn 0.009596 0.000004 0.999954
vn -0.700294 0.000002 0.713854
vn -0.999955 -0.000001 0.009462
vn 0.713954 0.000002 0.700193
usemtl Material
s off
f 1//1 2//1 3//1
f 4//1 5//1 6//1
f 7//2 8//2 9//2
f 12//2 13//2 14//2
f 15//2 16//2 17//2
f 18//2 19//2 20//2
f 21//1 22//1 23//1
f 26//1 27//1 28//1
f 31//1 32//1 33//1
f 34//2 35//2 36//2
f 37//2 38//2 39//2
f 40//1 41//1 42//1
f 36//3 1//3 42//3 8//3
f 8//4 42//4 11//4 29//4
f 29//5 11//5 5//5 13//5
f 13//6 5//6 22//6 16//6
f 16//7 22//7 27//7 19//7
f 19//8 27//8 44//8 25//8
f 25//9 44//9 31//9 37//9
f 1//10 36//10 37//10 31//10
f 42//1 1//1 3//1 40//1
f 2//1 1//1 31//1 33//1
f 12//11 14//11 4//11 6//11
f 29//2 30//2 9//2 8//2
f 15//12 17//12 21//12 23//12
f 37//2 39//2 24//2 25//2
f 18//13 20//13 26//13 28//13
f 10//14 30//14 12//14
f 38//15 33//15 32//15 39//15
f 7//2 34//2 36//2 8//2
f 7//16 40//16 3//16 34//16
f 42//1 41//1 10//1 11//1
f 12//2 30//2 29//2 13//2
f 12//17 6//17 10//17
f 11//1 10//1 6//1 5//1
f 15//2 14//2 13//2 16//2
f 4//1 23//1 22//1 5//1
f 15//18 23//18 4//18 14//18
f 18//2 17//2 16//2 19//2
f 21//1 28//1 27//1 22//1
f 18//19 28//19 21//19 17//19
f 24//2 20//2 19//2 25//2
f 26//1 43//1 44//1 27//1
f 24//20 43//20 26//20 20//20
f 44//1 43//1 32//1 31//1
f 36//2 35//2 38//2 37//2
f 35//21 34//21 3//21 2//21
f 38//22 35//22 2//22 33//22
f 7//23 9//23 41//23 40//23
f 30//24 10//24 41//24 9//24
f 39//25 32//25 43//25 24//25
v 1.132582 -0.520150 -1.144611
v 1.601211 -0.520150 -0.013240
v 1.132582 -0.520150 1.118131
v 0.001211 -0.520150 1.586760
v -1.130160 -0.520150 1.118130
v -1.598789 -0.520150 -0.013240
v -1.130160 -0.520150 -1.144611
v 0.001210 -0.520150 -1.613240
v 1.132581 0.529849 -1.144612
v 1.601211 0.529850 -0.013241
v 1.132582 0.529850 1.118130
v 0.001211 0.529850 1.586760
v -1.130160 0.529850 1.118130
v -1.598789 0.529850 -0.013241
v -1.130159 0.529849 -1.144612
v 0.001213 0.529849 -1.613240
v 0.001211 -0.520150 -0.013240
v 0.001211 0.529850 -0.013240
vn 0.923879 -0.000000 -0.382684
vn 0.923880 0.000000 0.382683
vn 0.382683 0.000000 0.923880
vn -0.382684 0.000000 0.923880
vn -0.923880 0.000000 0.382683
vn -0.923879 0.000000 -0.382684
vn -0.382683 0.000000 -0.923880
vn 0.382684 -0.000001 -0.923880
usemtl Material.006
s off
f 61//2 45//2 46//2
f 62//1 54//1 53//1
f 61//2 46//2 47//2
f 62//1 55//1 54//1
f 61//2 47//2 48//2
f 62//1 56//1 55//1
f 61//2 48//2 49//2
f 62//1 57//1 56//1
f 61//2 49//2 50//2
f 62//1 58//1 57//1
f 61//2 50//2 51//2
f 62//1 59//1 58//1
f 61//2 51//2 52//2
f 62//1 60//1 59//1
f 52//2 45//2 61//2
f 62//1 53//1 60//1
f 45//26 53//26 54//26 46//26
f 46//27 54//27 55//27 47//27
f 47//28 55//28 56//28 48//28
f 48//29 56//29 57//29 49//29
f 49//30 57//30 58//30 50//30
f 50//31 58//31 59//31 51//31
f 51//32 59//32 60//32 52//32
f 53//33 45//33 52//33 60//33
v 1.252334 0.721896 2.045536
v 1.325557 0.721896 1.868759
v 1.252334 0.721896 1.691982
v 1.075557 0.721896 1.618759
v 0.898781 0.721896 1.691983
v 0.825557 0.721896 1.868759
v 0.898781 0.721896 2.045536
v 1.075557 0.721896 2.118759
v 1.252334 -0.763912 2.045536
v 1.325557 -0.763912 1.868760
v 1.252334 -0.763912 1.691983
v 1.075557 -0.763912 1.618759
v 0.898781 -0.763912 1.691983
v 0.825557 -0.763912 1.868760
v 0.898781 -0.763912 2.045536
v 1.075558 -0.763912 2.118759
v 1.075557 0.721896 1.868759
v 1.075557 -0.763912 1.868759
vn 0.923879 0.000000 0.382684
vn 0.923880 -0.000000 -0.382683
vn 0.382683 -0.000000 -0.923880
vn -0.382684 -0.000000 -0.923880
vn -0.923880 -0.000000 -0.382683
vn -0.923879 0.000000 0.382684
vn -0.382683 0.000000 0.923880
usemtl Material.020
s off
f 79//1 63//1 64//1
f 80//2 72//2 71//2
f 79//1 64//1 65//1
f 80//2 73//2 72//2
f 79//1 65//1 66//1
f 80//2 74//2 73//2
f 79//1 66//1 67//1
f 80//2 75//2 74//2
f 79//1 67//1 68//1
f 80//2 76//2 75//2
f 79//1 68//1 69//1
f 80//2 77//2 76//2
f 79//1 69//1 70//1
f 80//2 78//2 77//2
f 70//1 63//1 79//1
f 80//2 71//2 78//2
f 63//34 71//34 72//34 64//34
f 64//35 72//35 73//35 65//35
f 65//36 73//36 74//36 66//36
f 66//37 74//37 75//37 67//37
f 67//38 75//38 76//38 68//38
f 68//39 76//39 77//39 69//39
f 69//40 77//40 78//40 70//40
f 71//28 63//28 70//28 78//28
v 1.252334 0.721896 -1.693253
v 1.325557 0.721896 -1.870029
v 1.252334 0.721896 -2.046806
v 1.075557 0.721896 -2.120029
v 0.898781 0.721896 -2.046806
v 0.825557 0.721896 -1.870029
v 0.898781 0.721896 -1.693253
v 1.075557 0.721896 -1.620029
v 1.252334 -0.763912 -1.693252
v 1.325557 -0.763912 -1.870029
v 1.252334 -0.763912 -2.046806
v 1.075557 -0.763912 -2.120029
v 0.898781 -0.763912 -2.046806
v 0.825557 -0.763912 -1.870029
v 0.898781 -0.763912 -1.693252
v 1.075558 -0.763912 -1.620029
v 1.075557 0.721896 -1.870029
v 1.075557 -0.763912 -1.870029
vn 0.382684 -0.000000 -0.923880
vn 0.382684 0.000000 0.923879
usemtl Material.020
s off
f 97//1 81//1 82//1
f 98//2 90//2 89//2
f 97//1 82//1 83//1
f 98//2 91//2 90//2
f 97//1 83//1 84//1
f 98//2 92//2 91//2
f 97//1 84//1 85//1
f 98//2 93//2 92//2
f 97//1 85//1 86//1
f 98//2 94//2 93//2
f 97//1 86//1 87//1
f 98//2 95//2 94//2
f 97//1 87//1 88//1
f 98//2 96//2 95//2
f 88//1 81//1 97//1
f 98//2 89//2 96//2
f 81//34 89//34 90//34 82//34
f 82//35 90//35 91//35 83//35
f 83//41 91//41 92//41 84//41
f 84//37 92//37 93//37 85//37
f 85//38 93//38 94//38 86//38
f 86//39 94//39 95//39 87//39
f 87//40 95//40 96//40 88//40
f 89//42 81//42 88//42 96//42
v -1.978747 0.721896 0.181505
v -1.905524 0.721896 0.004728
v -1.978747 0.721896 -0.172048
v -2.155524 0.721896 -0.245272
v -2.332300 0.721896 -0.172048
v -2.405524 0.721896 0.004728
v -2.332300 0.721896 0.181505
v -2.155524 0.721896 0.254728
v -1.978747 -0.763912 0.181505
v -1.905524 -0.763912 0.004729
v -1.978747 -0.763912 -0.172048
v -2.155524 -0.763912 -0.245271
v -2.332300 -0.763912 -0.172048
v -2.405524 -0.763912 0.004729
v -2.332300 -0.763912 0.181506
v -2.155523 -0.763912 0.254729
v -2.155524 0.721896 0.004728
v -2.155524 -0.763912 0.004729
vn -0.382684 -0.000000 -0.923879
vn -0.923880 -0.000000 -0.382684
usemtl Material.020
s off
f 115//1 99//1 100//1
f 116//2 108//2 107//2
f 115//1 100//1 101//1
f 116//2 109//2 108//2
f 115//1 101//1 102//1
f 116//2 110//2 109//2
f 115//1 102//1 103//1
f 116//2 111//2 110//2
f 115//1 103//1 104//1
f 116//2 112//2 111//2
f 115//1 104//1 105//1
f 116//2 113//2 112//2
f 115//1 105//1 106//1
f 116//2 114//2 113//2
f 106//1 99//1 115//1
f 116//2 107//2 114//2
f 99//34 107//34 108//34 100//34
f 100//35 108//35 109//35 101//35
f 101//41 109//41 110//41 102//41
f 102//43 110//43 111//43 103//43
f 103//44 111//44 112//44 104//44
f 104//39 112//39 113//39 105//39
f 105//40 113//40 114//40 106//40
f 107//42 99//42 106//42 114//42
